<svg width="61" height="61" viewBox="0 0 61 61" fill="none" xmlns="http://www.w3.org/2000/svg">
<mask id="path-1-inside-1_23_1919" fill="white">
<path d="M32.0614 6.29907L7.01425 13.2094C7.01425 13.2094 2.41394 13.08 2.41394 17.9663C2.41394 19.9828 3.30832 21.4856 3.30832 21.4856L22.3902 53.4C24.2146 56.3063 28.0893 54.4866 28.0893 54.4866L57.3496 40.2319L56.2546 39.1209C55.9968 37.7869 55.8468 35.3166 57.658 33.4772C57.6983 33.4359 57.7058 33.3797 57.7274 33.3281L58.6639 32.9522L32.0614 6.29907ZM18.8436 24.9609L14.3286 17.8584L32.8386 12.3853L37.9602 17.9606L18.8436 24.9609V24.9609ZM55.3002 36.4313C55.2393 36.8625 55.2083 37.2825 55.2149 37.6763L36.0064 46.7934L55.2833 38.6128C55.3021 38.7619 55.3189 38.9119 55.3424 39.0469L30.7189 50.94L55.5364 39.9338L55.5514 39.9919L28.0893 53.1291C28.0761 53.1375 26.8227 53.8041 25.5664 53.8041C24.3252 53.8041 23.5518 53.1666 23.1993 51.8559C22.2927 48.4884 27.4433 46.5797 27.5211 46.5516L56.0052 34.2281C55.8008 34.6031 55.6593 34.9847 55.5411 35.3653L37.4596 43.8769L55.3002 36.4313"/>
</mask>
<path d="M32.0614 6.29907L7.01425 13.2094C7.01425 13.2094 2.41394 13.08 2.41394 17.9663C2.41394 19.9828 3.30832 21.4856 3.30832 21.4856L22.3902 53.4C24.2146 56.3063 28.0893 54.4866 28.0893 54.4866L57.3496 40.2319L56.2546 39.1209C55.9968 37.7869 55.8468 35.3166 57.658 33.4772C57.6983 33.4359 57.7058 33.3797 57.7274 33.3281L58.6639 32.9522L32.0614 6.29907ZM18.8436 24.9609L14.3286 17.8584L32.8386 12.3853L37.9602 17.9606L18.8436 24.9609V24.9609ZM55.3002 36.4313C55.2393 36.8625 55.2083 37.2825 55.2149 37.6763L36.0064 46.7934L55.2833 38.6128C55.3021 38.7619 55.3189 38.9119 55.3424 39.0469L30.7189 50.94L55.5364 39.9338L55.5514 39.9919L28.0893 53.1291C28.0761 53.1375 26.8227 53.8041 25.5664 53.8041C24.3252 53.8041 23.5518 53.1666 23.1993 51.8559C22.2927 48.4884 27.4433 46.5797 27.5211 46.5516L56.0052 34.2281C55.8008 34.6031 55.6593 34.9847 55.5411 35.3653L37.4596 43.8769L55.3002 36.4313" fill="#9DA2C8"/>
<path d="M32.0614 6.29907L32.7692 5.59264L32.3574 5.18005L31.7955 5.33509L32.0614 6.29907ZM7.01425 13.2094L6.98614 14.209L7.13584 14.2132L7.28021 14.1734L7.01425 13.2094ZM3.30832 21.4856L2.44898 21.9971L2.45003 21.9988L3.30832 21.4856ZM22.3902 53.4L21.5319 53.9132L21.5375 53.9225L21.5432 53.9317L22.3902 53.4ZM28.0893 54.4866L28.5143 55.3917L28.5208 55.3887L28.5272 55.3856L28.0893 54.4866ZM57.3496 40.2319L57.7875 41.1309L59.0389 40.5213L58.0618 39.5299L57.3496 40.2319ZM56.2546 39.1209L55.2727 39.3107L55.3301 39.6076L55.5424 39.8229L56.2546 39.1209ZM57.658 33.4772L58.3705 34.1788L58.3732 34.1761L57.658 33.4772ZM57.7274 33.3281L57.3549 32.4001L56.9663 32.5561L56.8048 32.9423L57.7274 33.3281ZM58.6639 32.9522L59.0365 33.8802L60.4405 33.3166L59.3717 32.2458L58.6639 32.9522ZM14.3286 17.8584L14.0451 16.8995L12.7732 17.2756L13.4847 18.3949L14.3286 17.8584ZM32.8386 12.3853L33.5751 11.7088L33.1532 11.2495L32.5551 11.4264L32.8386 12.3853ZM37.9602 17.9606L38.3041 18.8997L39.7083 18.3854L38.6966 17.2841L37.9602 17.9606ZM55.2149 37.6763L55.6437 38.5797L56.2255 38.3035L56.2147 37.6596L55.2149 37.6763ZM36.0064 46.7934L35.5776 45.89L36.3971 47.714L36.0064 46.7934ZM55.2833 38.6128L56.2755 38.488L56.1104 37.1755L54.8927 37.6923L55.2833 38.6128ZM55.3424 39.0469L55.7773 39.9474L56.4567 39.6192L56.3276 38.8758L55.3424 39.0469ZM30.7189 50.94L30.284 50.0395L31.1243 51.8541L30.7189 50.94ZM55.5364 39.9338L56.5047 39.6839L56.2099 38.5412L55.131 39.0196L55.5364 39.9338ZM55.5514 39.9919L55.983 40.894L56.7253 40.5389L56.5197 39.742L55.5514 39.9919ZM28.0893 53.1291L27.6577 52.227L27.6012 52.254L27.5485 52.2879L28.0893 53.1291ZM23.1993 51.8559L24.1649 51.5962L24.1649 51.596L23.1993 51.8559ZM27.5211 46.5516L27.8611 47.492L27.89 47.4816L27.9182 47.4694L27.5211 46.5516ZM56.0052 34.2281L56.8833 34.7067L58.2725 32.1576L55.6081 33.3103L56.0052 34.2281ZM55.5411 35.3653L55.967 36.2701L56.3656 36.0825L56.4962 35.6617L55.5411 35.3653ZM37.4596 43.8769L37.0337 42.9721L37.8447 44.7997L37.4596 43.8769ZM31.7955 5.33509L6.7483 12.2454L7.28021 14.1734L32.3274 7.26306L31.7955 5.33509ZM7.01425 13.2094C7.04237 12.2098 7.04183 12.2098 7.04127 12.2098C7.04107 12.2097 7.04049 12.2097 7.04007 12.2097C7.03924 12.2097 7.03833 12.2097 7.03735 12.2097C7.03539 12.2096 7.03314 12.2096 7.03061 12.2095C7.02554 12.2094 7.01935 12.2093 7.01205 12.2092C6.99745 12.2091 6.97844 12.209 6.95531 12.2092C6.90907 12.2095 6.84615 12.2108 6.76889 12.2145C6.61475 12.2219 6.40142 12.2387 6.14818 12.2764C5.64648 12.3511 4.96173 12.5116 4.26477 12.8621C3.56215 13.2155 2.83631 13.7683 2.29006 14.6232C1.74189 15.4811 1.41394 16.582 1.41394 17.9663H3.41394C3.41394 16.9074 3.66103 16.1921 3.97542 15.7C4.29173 15.205 4.71597 14.8739 5.16342 14.6488C5.61654 14.4209 6.08187 14.3083 6.44273 14.2546C6.62077 14.2281 6.76684 14.2169 6.86427 14.2122C6.91281 14.2099 6.94872 14.2093 6.96987 14.2091C6.98043 14.209 6.98725 14.2091 6.99007 14.2091C6.99147 14.2091 6.99187 14.2091 6.99123 14.2091C6.99091 14.2091 6.99033 14.2091 6.98948 14.2091C6.98906 14.2091 6.98857 14.2091 6.98801 14.209C6.98773 14.209 6.98726 14.209 6.98713 14.209C6.98664 14.209 6.98614 14.209 7.01425 13.2094ZM1.41394 17.9663C1.41394 19.119 1.66876 20.1148 1.9191 20.8177C2.04493 21.171 2.17167 21.456 2.26929 21.6567C2.31818 21.7572 2.36001 21.8371 2.39111 21.8944C2.40667 21.923 2.41958 21.9461 2.42936 21.9632C2.43426 21.9718 2.43838 21.979 2.44167 21.9846C2.44331 21.9874 2.44475 21.9899 2.44597 21.992C2.44658 21.993 2.44714 21.9939 2.44764 21.9948C2.44789 21.9952 2.44813 21.9956 2.44835 21.996C2.44846 21.9962 2.44862 21.9964 2.44868 21.9965C2.44883 21.9968 2.44898 21.9971 3.30832 21.4856C4.16765 20.9742 4.16779 20.9745 4.16793 20.9747C4.16797 20.9748 4.16811 20.975 4.1682 20.9751C4.16837 20.9754 4.16852 20.9757 4.16867 20.9759C4.16895 20.9764 4.16918 20.9768 4.16936 20.9771C4.16973 20.9777 4.16988 20.978 4.16983 20.9779C4.16974 20.9777 4.16883 20.9762 4.16718 20.9733C4.16387 20.9675 4.15755 20.9563 4.14866 20.9399C4.13085 20.9071 4.1028 20.8538 4.06785 20.7819C3.99777 20.6379 3.90092 20.4211 3.80316 20.1466C3.6063 19.5939 3.41394 18.8301 3.41394 17.9663H1.41394ZM2.45003 21.9988L21.5319 53.9132L23.2485 52.8868L4.1666 20.9725L2.45003 21.9988ZM21.5432 53.9317C22.7288 55.8203 24.6013 56.1373 26.0002 56.0302C26.6986 55.9767 27.3191 55.8188 27.7597 55.678C27.982 55.607 28.1636 55.5387 28.2926 55.4868C28.3572 55.4608 28.4089 55.4387 28.4463 55.4224C28.465 55.4142 28.4801 55.4074 28.4915 55.4022C28.4972 55.3996 28.502 55.3975 28.5058 55.3957C28.5077 55.3948 28.5094 55.394 28.5108 55.3934C28.5115 55.393 28.5122 55.3927 28.5128 55.3925C28.513 55.3923 28.5134 55.3921 28.5136 55.3921C28.514 55.3919 28.5143 55.3917 28.0893 54.4866C27.6642 53.5814 27.6645 53.5813 27.6648 53.5811C27.6649 53.5811 27.6652 53.5809 27.6654 53.5808C27.6658 53.5807 27.6661 53.5805 27.6663 53.5804C27.6668 53.5802 27.667 53.5801 27.6671 53.5801C27.6671 53.58 27.6663 53.5804 27.6646 53.5812C27.6612 53.5827 27.6544 53.5858 27.6443 53.5902C27.624 53.5991 27.5907 53.6133 27.5458 53.6314C27.4557 53.6677 27.3204 53.7188 27.1509 53.7729C26.808 53.8825 26.3458 53.9979 25.8475 54.0361C24.853 54.1122 23.876 53.886 23.2371 52.8683L21.5432 53.9317ZM28.5272 55.3856L57.7875 41.1309L56.9116 39.3329L27.6513 53.5876L28.5272 55.3856ZM58.0618 39.5299L56.9668 38.419L55.5424 39.8229L56.6374 40.9339L58.0618 39.5299ZM57.2364 38.9312C56.9958 37.6863 56.9183 35.6536 58.3705 34.1788L56.9455 32.7756C54.7752 34.9795 54.9977 37.8875 55.2727 39.3107L57.2364 38.9312ZM58.3732 34.1761C58.5339 34.0117 58.6058 33.8386 58.6362 33.7572C58.6441 33.7362 58.6503 33.7181 58.6543 33.7061C58.6564 33.7 58.6582 33.6945 58.6595 33.6907C58.661 33.6859 58.6615 33.6846 58.6623 33.682C58.6657 33.6717 58.6603 33.6893 58.65 33.7139L56.8048 32.9423C56.7837 32.9927 56.7692 33.0367 56.7639 33.0527C56.7552 33.0791 56.7594 33.0662 56.7632 33.0559C56.7745 33.0258 56.8224 32.9015 56.9428 32.7783L58.3732 34.1761ZM58.0999 34.2562L59.0365 33.8802L58.2914 32.0242L57.3549 32.4001L58.0999 34.2562ZM59.3717 32.2458L32.7692 5.59264L31.3537 7.00551L57.9562 33.6586L59.3717 32.2458ZM19.6875 24.4245L15.1725 17.322L13.4847 18.3949L17.9997 25.4974L19.6875 24.4245ZM14.6122 18.8174L33.1222 13.3443L32.5551 11.4264L14.0451 16.8995L14.6122 18.8174ZM32.1022 13.0618L37.2238 18.6371L38.6966 17.2841L33.5751 11.7088L32.1022 13.0618ZM37.6163 17.0216L18.4998 24.0219L19.1875 25.9L38.3041 18.8997L37.6163 17.0216ZM54.31 36.2913C54.2433 36.7635 54.2074 37.2368 54.215 37.6929L56.2147 37.6596C56.2092 37.3282 56.2352 36.9615 56.2904 36.5712L54.31 36.2913ZM54.7861 36.7729L35.5776 45.89L36.4352 47.6968L55.6437 38.5797L54.7861 36.7729ZM36.3971 47.714L55.674 39.5334L54.8927 37.6923L35.6158 45.8729L36.3971 47.714ZM54.2911 38.7376C54.3073 38.8663 54.3284 39.0527 54.3571 39.2179L56.3276 38.8758C56.3095 38.7711 56.2968 38.6575 56.2755 38.488L54.2911 38.7376ZM54.9075 38.1464L30.284 50.0395L31.1539 51.8405L55.7773 39.9474L54.9075 38.1464ZM31.1243 51.8541L55.9418 40.8479L55.131 39.0196L30.3135 50.0259L31.1243 51.8541ZM54.5682 40.1836L54.5832 40.2417L56.5197 39.742L56.5047 39.6839L54.5682 40.1836ZM55.1199 39.0898L27.6577 52.227L28.5208 54.0312L55.983 40.894L55.1199 39.0898ZM27.5485 52.2879C27.6034 52.2526 27.6433 52.2351 27.5806 52.2665C27.5525 52.2805 27.5081 52.3022 27.4497 52.329C27.3324 52.3827 27.1628 52.4551 26.9593 52.5274C26.5395 52.6766 26.0338 52.8041 25.5664 52.8041V54.8041C26.3553 54.8041 27.1045 54.5983 27.6288 54.412C27.8973 54.3166 28.122 54.2209 28.2827 54.1472C28.3633 54.1103 28.4287 54.0785 28.4766 54.0545C28.4899 54.0479 28.5718 54.0077 28.63 53.9703L27.5485 52.2879ZM25.5664 52.8041C25.123 52.8041 24.8606 52.6939 24.6852 52.5495C24.5003 52.3973 24.3055 52.1189 24.1649 51.5962L22.2336 52.1157C22.4455 52.9037 22.8136 53.5993 23.414 54.0935C24.0237 54.5955 24.7687 54.8041 25.5664 54.8041V52.8041ZM24.1649 51.596C23.8793 50.5352 24.4902 49.5898 25.5969 48.7471C26.121 48.348 26.683 48.034 27.1263 47.8163C27.568 47.5994 27.8702 47.4887 27.8611 47.492L27.1812 45.6111C27.108 45.6376 25.6892 46.1629 24.3852 47.1559C23.1238 48.1165 21.6126 49.8092 22.2336 52.1159L24.1649 51.596ZM27.9182 47.4694L56.4023 35.1459L55.6081 33.3103L27.1241 45.6338L27.9182 47.4694ZM55.1271 33.7496C54.8793 34.2043 54.7148 34.6541 54.5861 35.0689L56.4962 35.6617C56.6037 35.3152 56.7223 35.002 56.8833 34.7067L55.1271 33.7496ZM55.1152 34.4606L37.0337 42.9721L37.8855 44.7817L55.967 36.2701L55.1152 34.4606ZM37.8447 44.7997L55.6853 37.3541L54.915 35.5084L37.0744 42.954L37.8447 44.7997Z" fill="#6668AA" mask="url(#path-1-inside-1_23_1919)"/>
</svg>
