<svg width="61" height="58" viewBox="0 0 61 58" fill="none" xmlns="http://www.w3.org/2000/svg">
<g clip-path="url(#clip0_23_1915)">
<path d="M10.105 12.461L11.249 13.6051C12.1069 14.4629 13.4977 14.4629 14.3555 13.6051C15.2133 12.7472 15.2133 11.3564 14.3555 10.4986L13.2114 9.35454C12.3536 8.49672 10.9628 8.49672 10.105 9.35454C9.24714 10.2124 9.24714 11.6032 10.105 12.461ZM28.5565 3.08997V5.63235C28.5565 6.86563 29.5563 7.86539 30.7895 7.86539C32.0228 7.86539 33.0226 6.86562 33.0226 5.63234V3.08997C33.0226 1.85669 32.0228 0.856918 30.7895 0.856918C29.5563 0.856918 28.5565 1.85669 28.5565 3.08997ZM6.38277 27.8061H3.71328C2.48 27.8061 1.48022 28.8058 1.48022 30.0391C1.48022 31.2724 2.48 32.2722 3.71328 32.2722H6.38277C7.61605 32.2722 8.61582 31.2724 8.61582 30.0391C8.61582 28.8058 7.61605 27.8061 6.38277 27.8061ZM40.1317 42.7406C41.8771 41.4683 43.3233 39.8828 44.4716 37.9799C45.906 35.603 46.6243 32.9809 46.6243 30.1027C46.6243 25.7439 45.0881 22.0363 42.0038 18.952C38.9195 15.8677 35.2119 14.3315 30.8531 14.3315C26.4943 14.3315 22.7867 15.8677 19.7024 18.952C16.6182 22.0363 15.0819 25.7439 15.0819 30.1027C15.0819 32.9837 15.7805 35.6077 17.1743 37.9854C18.2878 39.8849 19.7392 41.469 21.5316 42.7413C22.5211 43.4436 23.2175 44.5645 23.2175 45.8339V52.179C23.2175 54.6642 25.2322 56.679 27.7175 56.679H33.9887C36.474 56.679 38.4887 54.6642 38.4887 52.179V45.8046C38.4887 44.5538 39.1651 43.4453 40.1317 42.7406ZM55.1963 32.2722H57.8658C59.0991 32.2722 60.0989 31.2724 60.0989 30.0391C60.0989 28.8058 59.0991 27.8061 57.8658 27.8061H55.1963C53.963 27.8061 52.9633 28.8058 52.9633 30.0391C52.9633 31.2724 53.963 32.2722 55.1963 32.2722ZM50.2828 13.5728L51.4416 12.4437C52.3115 11.5961 52.3206 10.201 51.4617 9.34216C50.6108 8.49118 49.231 8.49118 48.3801 9.34216L47.2361 10.4862C46.379 11.3432 46.3908 12.7364 47.2623 13.5788C48.1052 14.3936 49.4431 14.391 50.2828 13.5728Z" fill="#9DA2C8" stroke="#6668AA"/>
</g>
<defs>
<clipPath id="clip0_23_1915">
<rect width="60" height="56.9492" fill="white" transform="matrix(1 0 0 -1 0.980225 57.179)"/>
</clipPath>
</defs>
</svg>
