<svg width="20" height="24" viewBox="0 0 20 24" fill="none" xmlns="http://www.w3.org/2000/svg">
<path d="M17.6253 16.4968C18.219 16.7771 18.6807 17.1436 19.0106 17.5964C19.3404 18.0492 19.5712 18.5235 19.7032 19.0194C19.8351 19.5153 19.923 19.9789 19.967 20.4101C20.011 20.8413 20.011 21.1755 19.967 21.4127C19.923 21.6499 19.8351 21.8223 19.7032 21.9302C19.3953 22.1889 19.0215 22.4153 18.5818 22.6093C18.142 22.8034 17.6583 22.9759 17.1306 23.1268C16.6029 23.2777 16.0642 23.3963 15.5145 23.4825L13.8984 23.7413C12.6671 23.8922 11.3698 23.9784 10.0066 24C8.62137 23.9784 7.3131 23.8922 6.08179 23.7413C5.55409 23.6766 5.01539 23.5903 4.4657 23.4825C3.91601 23.3747 3.3883 23.2561 2.88259 23.1268C2.37687 22.9974 1.89314 22.8249 1.4314 22.6093C0.969657 22.3937 0.584872 22.1673 0.277045 21.9302C0.145119 21.8223 0.0626649 21.6553 0.0296834 21.4289C-0.00329815 21.2025 -0.00879508 20.8629 0.0131926 20.4101C0.0351803 19.9573 0.123131 19.4938 0.277045 19.0194C0.430959 18.5451 0.661829 18.0707 0.969657 17.5964C1.27748 17.1221 1.73923 16.7555 2.35488 16.4968L4.39974 15.5912C5.03738 15.311 5.60906 15.0091 6.11478 14.6857C6.62049 14.3623 7.00528 13.985 7.26913 13.5537C7.53298 13.1225 7.6759 12.6051 7.69789 12.0013V11.8073C7.3241 11.5054 7.04925 11.1497 6.87335 10.74L6.11478 8.9936C5.719 8.56238 5.42216 8.1635 5.22427 7.79697C5.04837 7.49512 4.96042 7.21482 4.96042 6.95609C4.96042 6.69736 5.14732 6.568 5.52111 6.568C5.38918 5.74868 5.3562 5.01561 5.42216 4.36878C5.46614 3.82976 5.59806 3.33386 5.81794 2.88108C6.03782 2.4283 6.4336 2.20191 7.00528 2.20191C7.11522 1.79225 7.30211 1.42572 7.56596 1.1023C7.80783 0.82201 8.14864 0.563279 8.58839 0.326109C9.02814 0.0889388 9.61082 -0.0188658 10.3364 0.00269512C10.996 0.00269512 11.5347 0.142841 11.9525 0.423133C12.3703 0.703425 12.7331 1.02684 13.0409 1.39337C13.3487 1.75991 13.6016 2.11567 13.7995 2.46064C13.9974 2.80562 14.2172 3.05357 14.4591 3.20449C14.5471 3.24761 14.624 3.30152 14.69 3.3662C14.7559 3.43088 14.7559 3.51713 14.69 3.62493C14.602 3.92678 14.5141 4.36878 14.4261 4.95093C14.3382 5.53307 14.3492 6.07209 14.4591 6.568C14.8549 6.58956 15.0418 6.71892 15.0198 6.95609C14.9978 7.19326 14.8879 7.47355 14.69 7.79697C14.4701 8.1635 14.1623 8.56238 13.7665 8.9936C13.6126 9.3817 13.4916 9.71589 13.4037 9.99618C13.3157 10.2765 13.2168 10.5352 13.1069 10.7724C12.9969 11.0095 12.887 11.1928 12.777 11.3222C12.6671 11.4515 12.5022 11.6133 12.2823 11.8073V12.0013C12.2823 12.6266 12.4252 13.1441 12.7111 13.5537C12.9969 13.9634 13.3927 14.3407 13.8984 14.6857C14.4041 15.0307 14.9648 15.3325 15.5805 15.5912C16.1961 15.85 16.8777 16.1518 17.6253 16.4968Z" fill="#1D1E43"/>
</svg>
