<svg width="83" height="79" viewBox="0 0 83 79" fill="none" xmlns="http://www.w3.org/2000/svg">
<g clip-path="url(#clip0_206_328)">
<path d="M34.2329 34.9129V71.0626C34.2329 72.5174 32.9683 73.7133 31.544 73.5092C13.5819 70.9437 -0.147739 55.0832 0.491341 36.0753C1.14851 16.554 17.7781 0.545676 37.1013 0.79095C44.6979 0.886927 51.7172 3.36099 57.4885 7.49865C58.6792 8.35177 58.7576 10.1235 57.7252 11.1671L34.2329 34.9129Z" fill="url(#paint0_linear_206_328)" fill-opacity="0.9"/>
<path d="M33.4095 34.9129V34.5744L33.6476 34.3338L57.1398 10.588L57.6971 11.1394L57.1398 10.5879C57.8481 9.87204 57.7516 8.70012 57.0089 8.16802L57.0087 8.16788C51.3688 4.1244 44.5121 1.70809 37.0909 1.61433C18.2227 1.37483 1.95665 17.0225 1.31432 36.103C0.689427 54.6891 14.1128 70.1877 31.6604 72.694L31.6608 72.6941C32.5394 72.82 33.4095 72.0675 33.4095 71.0626V34.9129Z" stroke="url(#paint1_linear_206_328)" stroke-opacity="0.4" stroke-width="1.6469"/>
<path d="M80.2929 34.5937L44.527 34.5938L68.3463 10.5189C69.2567 9.59871 70.7549 9.52406 71.6909 10.4153C77.5241 15.9697 81.5364 23.4574 82.7136 31.8744C82.9155 33.3156 81.7323 34.5937 80.2929 34.5937Z" fill="url(#paint2_linear_206_328)" fill-opacity="0.9"/>
<path d="M81.8981 31.9887L81.898 31.9885C80.7474 23.7609 76.8255 16.4416 71.1231 11.0116C70.5361 10.4527 69.5505 10.4726 68.9317 11.098L46.5001 33.7703L80.2929 33.7703C81.2623 33.7703 82.0265 32.9051 81.8981 31.9887Z" stroke="url(#paint3_linear_206_328)" stroke-opacity="0.4" stroke-width="1.6469"/>
<path d="M77.6361 44.7846C76.3941 62.9836 62.0058 77.5263 44 78.7816C42.6254 78.8776 41.4678 77.7061 41.4678 76.3136V42.2252L75.1959 42.2252C76.5735 42.2252 77.7311 43.3952 77.6361 44.7846Z" fill="url(#paint4_linear_206_328)" fill-opacity="0.9"/>
<path d="M76.8146 44.7285L76.8146 44.7284C76.8753 43.8406 76.1228 43.0486 75.1959 43.0486L42.2913 43.0486V76.3136C42.2913 77.2743 43.0886 78.0198 43.9427 77.9602L43.9428 77.9601C61.5318 76.7339 75.6001 62.5241 76.8146 44.7285Z" stroke="url(#paint5_linear_206_328)" stroke-opacity="0.4" stroke-width="1.6469"/>
<path d="M60.6614 48.5797L61.313 49.2578L61.2271 52.7691C61.2238 53.11 61.2302 53.4037 61.2463 53.65C61.2625 53.8964 61.3029 54.1107 61.3678 54.293C61.4326 54.4752 61.5338 54.638 61.6716 54.7814C61.8288 54.945 62.0001 55.0489 62.1854 55.0932C62.3723 55.1392 62.5608 55.1311 62.751 55.0691C62.9411 55.007 63.118 54.8956 63.2816 54.735C63.4502 54.5695 63.5639 54.3891 63.6227 54.1937C63.6831 54 63.6868 53.8046 63.6337 53.6076C63.579 53.4122 63.4665 53.2259 63.2963 53.0488L64.1803 52.1811C64.4964 52.51 64.6968 52.8689 64.7816 53.2576C64.8665 53.6464 64.8427 54.0352 64.7103 54.4241C64.5762 54.8147 64.3398 55.1763 64.0009 55.5089C63.657 55.8465 63.2924 56.0782 62.9072 56.2039C62.5219 56.3297 62.1489 56.35 61.7882 56.2649C61.4257 56.1815 61.1051 55.9947 60.8263 55.7045C60.6399 55.5105 60.4935 55.2839 60.387 55.0245C60.2806 54.7652 60.2106 54.4307 60.1771 54.0211C60.1419 53.6131 60.1348 53.0841 60.1559 52.4341L60.167 50.6581L60.133 50.6226L57.8993 52.8153L57.1456 52.0309L60.6614 48.5797ZM54.4306 54.5583C54.7645 54.2306 55.1241 54.0005 55.5094 53.8681C55.8964 53.7373 56.2745 53.7071 56.6437 53.7774C57.0112 53.8493 57.3378 54.0237 57.6233 54.3006L56.7218 55.1855C56.5009 54.9894 56.243 54.9049 55.948 54.9322C55.6547 54.9612 55.392 55.0896 55.16 55.3174C54.978 55.496 54.8566 55.6971 54.7957 55.9208C54.7349 56.1444 54.7357 56.3714 54.7981 56.6019C54.8606 56.8323 54.985 57.0428 55.1715 57.2335C55.3578 57.4308 55.5657 57.5644 55.795 57.6343C56.0244 57.7042 56.253 57.7108 56.4809 57.6543C56.7104 57.5994 56.9195 57.4794 57.1081 57.2942C57.2634 57.1451 57.3869 56.9682 57.4787 56.7633C57.5706 56.5584 57.6137 56.3653 57.6081 56.1839L58.5808 55.4996L60.8802 58.4345L57.9053 61.3548L57.1516 60.5704L59.3578 58.4048L58.1853 56.8859L58.1553 56.9154C58.1687 57.1218 58.1243 57.3473 58.022 57.592C57.9213 57.8383 57.7675 58.0631 57.5604 58.2663C57.2499 58.5711 56.9015 58.7689 56.5151 58.8597C56.1304 58.9522 55.7439 58.9383 55.3557 58.8178C54.9674 58.6974 54.6137 58.471 54.2944 58.1387C53.9653 57.7963 53.7504 57.414 53.6496 56.9917C53.5488 56.5728 53.5632 56.1506 53.6928 55.725C53.8224 55.3028 54.0683 54.9139 54.4306 54.5583ZM50.0108 60.9226L50.2734 61.1959C50.4662 61.3966 50.602 61.6223 50.6806 61.8729C50.7575 62.1252 50.7645 62.3822 50.7014 62.6441C50.6384 62.9059 50.4916 63.1499 50.2612 63.3761C50.0242 63.6088 49.7761 63.7523 49.517 63.8068C49.2594 63.8629 49.0087 63.8467 48.7648 63.7584C48.5193 63.6716 48.2993 63.527 48.1048 63.3246L47.8422 63.0513C47.6493 62.8506 47.5136 62.6249 47.4349 62.3743C47.3563 62.1237 47.3486 61.8675 47.4116 61.6056C47.473 61.3454 47.6206 61.1006 47.8543 60.8711C48.088 60.6417 48.3353 60.499 48.5961 60.4429C48.8569 60.3869 49.1101 60.4022 49.3556 60.4889C49.5995 60.5773 49.8179 60.7219 50.0108 60.9226ZM49.6198 61.8374L49.3572 61.5642C49.2291 61.4309 49.0799 61.3398 48.9095 61.2907C48.7391 61.2416 48.5737 61.2958 48.4135 61.4531C48.2515 61.6121 48.1932 61.7759 48.2385 61.9445C48.2837 62.1165 48.3711 62.2699 48.5008 62.4049L48.7634 62.6781C48.893 62.8131 49.0406 62.9075 49.206 62.9615C49.373 63.0172 49.54 62.9631 49.7069 62.7992C49.8638 62.6451 49.9206 62.4797 49.8771 62.3027C49.8352 62.1275 49.7494 61.9724 49.6198 61.8374ZM55.4671 61.3291L55.7296 61.6024C55.9241 61.8048 56.0599 62.0322 56.1368 62.2844C56.2137 62.5367 56.2199 62.7929 56.1552 63.0531C56.0921 63.3149 55.9454 63.5589 55.715 63.7851C55.4796 64.0161 55.2324 64.1589 54.9732 64.2133C54.714 64.271 54.4625 64.2557 54.2186 64.1673C53.9747 64.079 53.7555 63.9336 53.561 63.7311L53.2985 63.4579C53.104 63.2555 52.9674 63.0289 52.8888 62.7783C52.8101 62.531 52.8031 62.2773 52.8678 62.0171C52.9325 61.757 53.0809 61.513 53.3129 61.2852C53.5483 61.0541 53.7956 60.9097 54.0548 60.852C54.3123 60.7959 54.5638 60.8112 54.8094 60.8979C55.055 60.9847 55.2742 61.1284 55.4671 61.3291ZM55.071 62.2489L54.8085 61.9756C54.6788 61.8407 54.5296 61.7479 54.3608 61.6972C54.192 61.6498 54.0275 61.7048 53.8673 61.8621C53.707 62.0194 53.6495 62.1824 53.6947 62.351C53.7399 62.523 53.8274 62.6764 53.957 62.8114L54.2196 63.0847C54.3493 63.2196 54.4968 63.3141 54.6622 63.368C54.8293 63.4237 54.9954 63.3704 55.1607 63.2082C55.3193 63.0525 55.376 62.887 55.3308 62.7117C55.2857 62.5364 55.1991 62.3822 55.071 62.2489ZM51.3985 57.6723L52.8519 66.3153L52.2259 66.9298L50.7725 58.2868L51.3985 57.6723Z" fill="white" fill-opacity="0.8"/>
</g>
<defs>
<linearGradient id="paint0_linear_206_328" x1="41.3466" y1="103.806" x2="41.3467" y2="-20.5513" gradientUnits="userSpaceOnUse">
<stop stop-color="#F53B3B"/>
<stop offset="1" stop-color="#FB6544"/>
</linearGradient>
<linearGradient id="paint1_linear_206_328" x1="41.4676" y1="78.7873" x2="41.4676" y2="0.788101" gradientUnits="userSpaceOnUse">
<stop stop-color="#E74544"/>
<stop offset="1" stop-color="white" stop-opacity="0.14"/>
</linearGradient>
<linearGradient id="paint2_linear_206_328" x1="50.8231" y1="56.9535" x2="41.4217" y2="-20.8466" gradientUnits="userSpaceOnUse">
<stop stop-color="#1256BC"/>
<stop offset="1" stop-color="#44F0FB"/>
</linearGradient>
<linearGradient id="paint3_linear_206_328" x1="41.7384" y1="78.4683" x2="41.7384" y2="0.469118" gradientUnits="userSpaceOnUse">
<stop stop-color="#E74544"/>
<stop offset="1" stop-color="white" stop-opacity="0.14"/>
</linearGradient>
<linearGradient id="paint4_linear_206_328" x1="41.3467" y1="103.806" x2="41.3468" y2="-20.5513" gradientUnits="userSpaceOnUse">
<stop stop-color="#F5AB3B"/>
<stop offset="1" stop-color="#FB6544"/>
</linearGradient>
<linearGradient id="paint5_linear_206_328" x1="41.4677" y1="78.7872" x2="41.4677" y2="0.78805" gradientUnits="userSpaceOnUse">
<stop stop-color="#E74544"/>
<stop offset="1" stop-color="white" stop-opacity="0.14"/>
</linearGradient>
<clipPath id="clip0_206_328">
<rect width="81.9951" height="78" fill="white" transform="matrix(1 0 0 -1 0.470093 78.7876)"/>
</clipPath>
</defs>
</svg>
