<svg width="101" height="81" viewBox="0 0 101 81" fill="none" xmlns="http://www.w3.org/2000/svg">
<g clip-path="url(#clip0_206_324)">
<path d="M90.7434 8.06396C90.7434 3.93896 87.3684 0.563965 83.2434 0.563965H18.2434C14.1184 0.563965 10.7434 3.93896 10.7434 8.06396V60.564H90.7434V8.06396ZM80.7434 50.564H20.7434V10.564H80.7434V50.564Z" fill="url(#paint0_linear_206_324)" fill-opacity="0.9"/>
<path d="M80.7434 51.3874H81.5669V50.564V10.564V9.74052H80.7434H20.7434H19.92V10.564V50.564V51.3874H20.7434H80.7434ZM83.2434 1.38741C86.9136 1.38741 89.92 4.39374 89.92 8.06396V59.7405H11.5669V8.06396C11.5669 4.39374 14.5732 1.38741 18.2434 1.38741H83.2434Z" stroke="url(#paint1_linear_206_324)" stroke-opacity="0.4" stroke-width="1.6469"/>
<path d="M40.5918 41.4469C41.5684 42.4234 43.1512 42.4234 44.1277 41.4469L45.8949 39.6797C46.8715 38.7031 46.8715 37.1203 45.8949 36.1438L40.3137 30.5641L45.8934 24.9828C46.8699 24.0063 46.8699 22.4234 45.8934 21.4469L44.1262 19.6797C43.1496 18.7031 41.5668 18.7031 40.5902 19.6797L31.4746 28.7953C30.498 29.7719 30.498 31.3547 31.4746 32.3313L40.5918 41.4469ZM55.5934 39.6813L57.3606 41.4484C58.3371 42.425 59.9199 42.425 60.8965 41.4484L70.0121 32.3328C70.9887 31.3563 70.9887 29.7734 70.0121 28.7969L60.8965 19.6813C59.9199 18.7047 58.3371 18.7047 57.3606 19.6813L55.5934 21.4484C54.6168 22.425 54.6168 24.0078 55.5934 24.9844L61.1731 30.5641L55.5934 36.1453C54.6168 37.1219 54.6168 38.7047 55.5934 39.6813Z" fill="url(#paint2_linear_206_324)" fill-opacity="0.9"/>
<path d="M40.8829 41.1557L40.8829 41.1557L31.7657 32.0401C31.7657 32.0401 31.7657 32.0401 31.7657 32.0401C30.95 31.2243 30.95 29.9022 31.7657 29.0864L40.8814 19.9708C41.6971 19.155 43.0193 19.155 43.835 19.9708L45.6022 21.738C46.418 22.5538 46.418 23.8759 45.6022 24.6917L45.6022 24.6917L40.0225 30.273L39.7314 30.5641L40.0226 30.8552L45.6038 36.4349C46.4196 37.2507 46.4196 38.5728 45.6038 39.3886L43.8366 41.1557C43.0208 41.9715 41.6987 41.9715 40.8829 41.1557ZM61.4642 30.8552L61.7553 30.564L61.4642 30.2729L55.8845 24.6932C55.0687 23.8775 55.0687 22.5553 55.8845 21.7396L57.6517 19.9724C58.4675 19.1566 59.7896 19.1566 60.6054 19.9724L69.721 29.088C70.5368 29.9038 70.5368 31.2259 69.721 32.0417L60.6054 41.1573C59.7896 41.9731 58.4675 41.9731 57.6517 41.1573L55.8845 39.3901C55.0687 38.5743 55.0687 37.2522 55.8845 36.4364L55.8845 36.4364L61.4642 30.8552Z" stroke="url(#paint3_linear_206_324)" stroke-opacity="0.4" stroke-width="0.823448"/>
<path d="M98.2434 65.564H60.359C60.2434 68.6593 58.0606 70.564 55.2434 70.564H45.7434C42.8231 70.564 40.584 67.8343 40.6231 65.564H3.24341C1.86841 65.564 0.743408 66.689 0.743408 68.064V70.564C0.743408 76.064 5.24341 80.564 10.7434 80.564H90.7434C96.2434 80.564 100.743 76.064 100.743 70.564V68.064C100.743 66.689 99.6184 65.564 98.2434 65.564Z" fill="url(#paint4_linear_206_324)" fill-opacity="0.9"/>
<path d="M3.24341 66.3874H39.8651C40.0557 67.5084 40.6474 68.6117 41.4771 69.4831C42.523 70.5817 44.0184 71.3874 45.7434 71.3874H55.2434C56.8399 71.3874 58.2993 70.8455 59.3802 69.8229C60.2954 68.9571 60.9031 67.7808 61.1093 66.3874H98.2434C99.1636 66.3874 99.92 67.1437 99.92 68.064V70.564C99.92 75.6092 95.7886 79.7405 90.7434 79.7405H10.7434C5.69819 79.7405 1.56686 75.6092 1.56686 70.564V68.064C1.56686 67.1437 2.32319 66.3874 3.24341 66.3874Z" stroke="url(#paint5_linear_206_324)" stroke-opacity="0.4" stroke-width="1.6469"/>
</g>
<defs>
<linearGradient id="paint0_linear_206_324" x1="71.2512" y1="-32.7297" x2="71.2512" y2="104.032" gradientUnits="userSpaceOnUse">
<stop stop-color="#F53B3B"/>
<stop offset="1" stop-color="#FB6544"/>
</linearGradient>
<linearGradient id="paint1_linear_206_324" x1="71.4598" y1="-5.21553" x2="71.4598" y2="80.564" gradientUnits="userSpaceOnUse">
<stop stop-color="#E74544"/>
<stop offset="1" stop-color="white" stop-opacity="0.14"/>
</linearGradient>
<linearGradient id="paint2_linear_206_324" x1="37.3337" y1="-1.99376" x2="29.4345" y2="71.0801" gradientUnits="userSpaceOnUse">
<stop stop-color="#1256BC"/>
<stop offset="1" stop-color="#44F0FB"/>
</linearGradient>
<linearGradient id="paint3_linear_206_324" x1="27.8227" y1="-22.1435" x2="27.8227" y2="50.9068" gradientUnits="userSpaceOnUse">
<stop stop-color="#E74544"/>
<stop offset="1" stop-color="white" stop-opacity="0.14"/>
</linearGradient>
<linearGradient id="paint4_linear_206_324" x1="0.408656" y1="55.2997" x2="0.408657" y2="106.319" gradientUnits="userSpaceOnUse">
<stop stop-color="#F5AB3B"/>
<stop offset="1" stop-color="#FB6544"/>
</linearGradient>
<linearGradient id="paint5_linear_206_324" x1="0.742989" y1="65.5639" x2="0.742989" y2="97.5641" gradientUnits="userSpaceOnUse">
<stop stop-color="#E74544"/>
<stop offset="1" stop-color="white" stop-opacity="0.14"/>
</linearGradient>
<clipPath id="clip0_206_324">
<rect width="100" height="80" fill="white" transform="translate(0.743408 0.563965)"/>
</clipPath>
</defs>
</svg>
