<svg width="16" height="16" viewBox="0 0 16 16" fill="none" xmlns="http://www.w3.org/2000/svg">
<path d="M6.46372 8.90791C6.50772 9.16791 6.58772 9.39991 6.70372 9.60391C6.81972 9.80791 6.97972 9.97191 7.17572 10.0959C7.36372 10.2119 7.59972 10.2759 7.89172 10.2799C8.08372 10.2759 8.25972 10.2439 8.41172 10.1759C8.57572 10.1039 8.71172 10.0079 8.82772 9.88791C8.94372 9.76791 9.03172 9.62391 9.09572 9.46391C9.15972 9.30391 9.19572 9.13191 9.20372 8.95191H10.6357C10.6237 9.32791 10.5477 9.67191 10.4157 9.98391C10.2837 10.2959 10.0917 10.5639 9.85172 10.7919C9.61172 11.0199 9.32372 11.1919 8.98772 11.3159C8.65172 11.4399 8.27972 11.5039 7.87172 11.5039C7.35172 11.5039 6.89972 11.4159 6.51572 11.2359C6.13172 11.0559 5.81172 10.8119 5.55572 10.4999C5.29972 10.1879 5.10772 9.82791 4.98372 9.41591C4.85972 9.00391 4.79972 8.5679 4.79972 8.1079V7.8879C4.79972 7.4239 4.86372 6.9879 4.98772 6.5759C5.11172 6.1639 5.30372 5.8039 5.55972 5.4959C5.81572 5.1879 6.13572 4.9439 6.52372 4.7639C6.91172 4.5839 7.36372 4.4959 7.88372 4.4959C8.25972 4.4959 8.61172 4.5559 8.93972 4.6799C9.26772 4.8039 9.55572 4.9719 9.80372 5.1879C10.0517 5.4039 10.2517 5.6519 10.3957 5.9399C10.5397 6.2279 10.6237 6.5319 10.6357 6.8599H9.20372C9.19572 6.6919 9.15572 6.5399 9.08372 6.3959C9.01172 6.2519 8.91572 6.1319 8.79572 6.0319C8.67572 5.9319 8.53572 5.8519 8.37572 5.7959C8.22372 5.7439 8.06372 5.7159 7.89172 5.7159C7.60372 5.7239 7.36772 5.7839 7.17572 5.9039C6.97572 6.0319 6.81572 6.1959 6.69972 6.3999C6.58372 6.6039 6.50372 6.8359 6.45972 7.09991C6.41572 7.3639 6.39972 7.6199 6.39972 7.8879V8.1079C6.39972 8.3799 6.41972 8.64791 6.46372 8.90791Z" fill="#8F91D0"/>
<path d="M8 16C3.58 16 0 12.42 0 8C0 3.58 3.58 0 8 0C12.42 0 16 3.58 16 8C16 12.42 12.42 16 8 16ZM8 1.6C4.472 1.6 1.6 4.472 1.6 8C1.6 11.528 4.472 14.4 8 14.4C11.528 14.4 14.4 11.528 14.4 8C14.4 4.472 11.528 1.6 8 1.6Z" fill="#8F91D0"/>
</svg>
