<svg width="138" height="70" viewBox="0 0 138 70" fill="none" xmlns="http://www.w3.org/2000/svg">
<rect width="138" height="70" rx="10" fill="white"/>
<path d="M118 47.5541C118 49.1465 115.545 45.9618 113.909 45.9618C112.273 45.9618 109 49.1465 109 47.5541C112.273 44.3694 112.307 38 113.582 38C114.856 38 115.545 44.3694 118 47.5541Z" fill="#F5443B"/>
<path d="M29.4507 41.2427C29.4507 42.4124 29.1769 43.4204 28.6293 44.2667C28.1067 45.088 27.2356 45.8471 26.016 46.544C25.1947 47.0418 24.2364 47.4151 23.1413 47.664C22.0462 47.9129 20.9387 48.0373 19.8187 48.0373C18.6738 48.0373 17.2551 47.664 15.5627 46.9173C14.3431 46.32 13.3724 45.6107 12.6507 44.7893C11.9538 43.968 11.6053 43.072 11.6053 42.1013C11.6053 41.4293 11.7547 40.944 12.0533 40.6453C12.352 40.3218 12.8373 40.16 13.5093 40.16C13.8578 40.16 14.2187 40.3093 14.592 40.608C14.9653 40.8818 15.1893 41.1556 15.264 41.4293C15.6124 42.4498 16.2222 43.2338 17.0933 43.7813C17.9644 44.304 19.0471 44.5653 20.3413 44.5653C21.8347 44.5653 23.0791 44.2916 24.0747 43.744C25.0951 43.1964 25.6053 42.4622 25.6053 41.5413C25.6053 40.6453 25.0578 39.8489 23.9627 39.152C22.8676 38.4551 21.7476 37.9698 20.6027 37.696C18.96 37.248 17.504 36.7129 16.2347 36.0907C14.9156 35.4436 13.9324 34.6471 13.2853 33.7013C12.6382 32.7556 12.3147 31.76 12.3147 30.7147C12.3147 29.744 12.6507 28.7609 13.3227 27.7653C13.9947 26.7449 14.7911 26.0107 15.712 25.5627C16.2098 25.3138 17.056 25.0524 18.2507 24.7787C19.4702 24.48 20.3538 24.3307 20.9013 24.3307C21.6231 24.3307 22.4196 24.4178 23.2907 24.592C24.1618 24.7662 24.8711 25.0151 25.4187 25.3387C26.5138 25.9609 27.3227 26.5209 27.8453 27.0187C28.368 27.5164 28.6293 28.1387 28.6293 28.8853C28.6293 29.3333 28.4551 29.7316 28.1067 30.08C27.7831 30.4284 27.2107 30.6027 26.3893 30.6027C26.1902 30.6027 25.9911 30.5156 25.792 30.3413C25.5929 30.1671 25.344 29.9058 25.0453 29.5573C24.6471 29.0347 24.2613 28.6862 23.888 28.512C23.5147 28.3876 22.9671 28.2507 22.2453 28.1013C21.5484 27.952 20.9262 27.8773 20.3787 27.8773C19.7813 27.8773 19.1591 28.0018 18.512 28.2507C17.8649 28.4996 17.3173 28.8604 16.8693 29.3333C16.4462 29.7813 16.2347 30.304 16.2347 30.9013C16.2347 31.3991 16.4587 31.8347 16.9067 32.208C17.3796 32.5564 17.9396 32.8427 18.5867 33.0667C19.3333 33.3653 20.1422 33.6267 21.0133 33.8507C22.1582 34.1991 23.0916 34.5227 23.8133 34.8213C24.56 35.0951 25.2818 35.4436 25.9787 35.8667C27.1982 36.5884 28.0818 37.3351 28.6293 38.1067C29.1769 38.8533 29.4507 39.8987 29.4507 41.2427ZM34.8462 24.032C35.7173 24.1067 36.4764 24.3431 37.1235 24.7413C37.7707 25.1147 38.0942 25.6871 38.0942 26.4587C38.0942 27.0311 37.8204 27.4916 37.2729 27.84C36.7502 28.1636 36.1155 28.3253 35.3689 28.3253C34.6471 28.3253 34.1493 28.1387 33.8755 27.7653C33.6018 27.392 33.4649 27.0062 33.4649 26.608C33.4649 25.8613 33.5395 25.2391 33.6889 24.7413C33.8631 24.2436 34.2489 24.0071 34.8462 24.032ZM37.8329 40.5707V41.6533C37.8329 42.624 37.8578 43.5449 37.9075 44.416C37.9822 45.2622 38.0693 46.1209 38.1689 46.992C38.144 47.2409 37.9573 47.5022 37.6089 47.776C37.2604 48.0249 36.9493 48.1493 36.6755 48.1493C36.2027 48.1493 35.7173 48.0622 35.2195 47.888C34.7467 47.6889 34.4604 47.4524 34.3609 47.1787C34.2115 46.3822 34.1369 45.6729 34.1369 45.0507C34.1369 43.0098 34.0747 40.72 33.9502 38.1813C33.8507 35.9413 33.8009 34.3733 33.8009 33.4773C33.8009 33.0293 34.0249 32.6436 34.4729 32.32C34.9209 31.9964 35.3938 31.8347 35.8915 31.8347C36.6133 31.8347 37.1111 31.9964 37.3849 32.32C37.6835 32.6436 37.8329 33.1538 37.8329 33.8507V40.5707ZM59.5183 45.1253C59.6427 45.1751 59.8419 45.2373 60.1156 45.312C60.3894 45.3867 60.5885 45.4613 60.713 45.536C60.8374 45.6107 60.8996 45.7227 60.8996 45.872C60.9245 46.4693 60.7005 46.9671 60.2276 47.3653C59.7796 47.7387 59.2445 47.9253 58.6223 47.9253C57.6516 47.9253 56.8925 47.664 56.345 47.1413C55.7974 46.6187 55.3992 45.8222 55.1503 44.752C55.0507 44.3289 55.001 43.744 55.001 42.9973C55.001 42.5742 55.0259 41.8898 55.0756 40.944C55.1254 39.9484 55.1503 39.152 55.1503 38.5547C55.1503 37.6836 54.9014 36.9244 54.4036 36.2773C53.9307 35.6053 53.2587 35.2693 52.3876 35.2693C51.865 35.2693 51.3174 35.4311 50.745 35.7547C50.1725 36.0533 49.7743 36.4267 49.5503 36.8747C49.177 37.5964 48.9156 38.3804 48.7663 39.2267C48.4925 40.72 48.3556 42.2756 48.3556 43.8933C48.3556 44.6649 48.3681 45.2622 48.393 45.6853C48.393 45.7849 48.393 45.984 48.393 46.2827C48.4179 46.5564 48.393 46.8178 48.3183 47.0667C48.2685 47.2907 48.169 47.5022 48.0196 47.7013C47.8952 47.8258 47.6961 47.9253 47.4223 48C47.1734 48.0996 46.937 48.1493 46.713 48.1493C46.3645 48.1493 45.929 48 45.4063 47.7013C44.8836 47.4027 44.585 47.0667 44.5103 46.6933L44.473 46.0587C44.473 45.8347 44.4978 45.5733 44.5476 45.2747C44.8463 43.5324 44.9956 42.0142 44.9956 40.72C44.9956 40.1476 44.9832 39.6996 44.9583 39.376L44.921 37.6213C44.921 37.024 44.7716 36.4516 44.473 35.904C44.1743 35.3316 43.8258 35.0453 43.4276 35.0453C43.3032 35.0453 43.129 35.0951 42.905 35.1947C42.681 35.2693 42.4943 35.3067 42.345 35.3067C42.0961 35.3067 41.8223 35.1822 41.5236 34.9333C41.2498 34.6844 41.113 34.4231 41.113 34.1493C41.113 33.6267 41.2872 33.2036 41.6356 32.88C42.009 32.5813 42.3698 32.3449 42.7183 32.1707C43.0916 31.9964 43.5147 31.9093 43.9876 31.9093C44.3858 31.9093 44.7094 31.9467 44.9583 32.0213C45.2072 32.096 45.5432 32.2578 45.9663 32.5067C46.1903 32.6311 46.4516 32.9049 46.7503 33.328C47.049 33.7511 47.2978 34.3484 47.497 35.12C48.1441 33.9253 48.9405 33.0916 49.8863 32.6187C50.857 32.1209 52.089 31.872 53.5823 31.872C54.1547 31.872 54.7645 32.0587 55.4116 32.432C56.0836 32.8053 56.6561 33.2409 57.129 33.7387C57.577 34.2862 57.9503 34.9707 58.249 35.792C58.5476 36.5884 58.697 37.3102 58.697 37.9573C58.697 38.3307 58.6721 38.9404 58.6223 39.7867C58.5476 40.4587 58.5103 41.168 58.5103 41.9147C58.5103 43.6569 58.8463 44.7271 59.5183 45.1253ZM77.7903 48.1493C76.9441 48.1493 76.297 48.0249 75.849 47.776C75.401 47.5022 74.9157 47.0044 74.393 46.2827C73.7459 46.8551 72.7752 47.3156 71.481 47.664C70.2117 48.0124 69.1166 48.1867 68.1957 48.1867C66.6774 48.1867 65.4454 47.776 64.4997 46.9547C63.5788 46.1084 63.1183 44.8764 63.1183 43.2587C63.1183 42.5618 63.305 41.9271 63.6783 41.3547C64.0766 40.7573 64.5868 40.2347 65.209 39.7867C65.9059 39.3138 66.7272 38.9404 67.673 38.6667C68.6437 38.3929 69.5272 38.256 70.3237 38.256C71.6677 38.256 72.8623 38.3804 73.9077 38.6293V38.592C73.9077 37.248 73.5717 36.3271 72.8997 35.8293C72.2526 35.3067 71.2072 35.0453 69.7637 35.0453C68.8428 35.0453 68.0463 35.456 67.3743 36.2773C67.1254 36.6009 66.6028 36.7627 65.8063 36.7627C65.4081 36.7627 65.1094 36.6009 64.9103 36.2773C64.7361 35.9289 64.649 35.5804 64.649 35.232C64.649 34.5102 64.9477 33.888 65.545 33.3653C66.1672 32.8427 66.9139 32.4569 67.785 32.208C68.6561 31.9342 69.465 31.7973 70.2117 31.7973C70.9334 31.7973 71.7921 31.9467 72.7877 32.2453C73.7832 32.544 74.5921 32.9422 75.2143 33.44C75.961 34.0871 76.5335 34.8462 76.9317 35.7173C77.3548 36.5636 77.5663 37.4969 77.5663 38.5173C77.5663 38.8409 77.5414 39.3262 77.4917 39.9733C77.4419 40.72 77.417 41.3298 77.417 41.8027C77.417 42.0267 77.3921 42.3129 77.3423 42.6613C77.2926 43.1093 77.2677 43.4827 77.2677 43.7813C77.2677 44.1049 77.3672 44.416 77.5663 44.7147C77.7655 45.0133 78.0392 45.2622 78.3877 45.4613C78.7112 45.6356 78.9228 45.8222 79.0223 46.0213C79.1219 46.2204 79.1717 46.4444 79.1717 46.6933C79.1717 46.9422 79.0099 47.2533 78.6863 47.6267C78.3877 47.9751 78.089 48.1493 77.7903 48.1493ZM70.3237 41.0187C69.353 41.0187 68.4943 41.2053 67.7477 41.5787C67.001 41.952 66.6277 42.6116 66.6277 43.5573C66.6277 44.0302 66.7894 44.4284 67.113 44.752C67.4614 45.0756 67.8348 45.2373 68.233 45.2373C69.3032 45.2373 70.1992 45.1253 70.921 44.9013C71.6428 44.6773 72.5139 44.2667 73.5343 43.6693C73.6588 43.2711 73.7334 42.7111 73.7583 41.9893C73.7583 41.7156 73.7708 41.504 73.7957 41.3547C72.4517 41.1307 71.2943 41.0187 70.3237 41.0187ZM81.568 35.4187C81.3689 35.4187 81.1947 35.344 81.0453 35.1947C80.896 35.0204 80.8213 34.8213 80.8213 34.5973C80.8213 33.8756 81.0578 33.328 81.5307 32.9547C82.0036 32.5564 82.5885 32.3573 83.2853 32.3573C84.256 32.3573 85.0898 32.6187 85.7867 33.1413C86.5085 33.6391 86.8693 34.3609 86.8693 35.3067C86.8693 35.5556 86.8196 36.5013 86.72 38.144C86.6205 40.0356 86.5707 41.2924 86.5707 41.9147C86.5707 42.7858 86.7325 43.4951 87.056 44.0427C87.4045 44.5653 87.9396 44.8267 88.6613 44.8267C90.0551 44.8267 91.1253 44.0551 91.872 42.512C92.6436 40.944 93.1538 39.0276 93.4027 36.7627C93.5022 35.7671 93.6516 34.7218 93.8507 33.6267C93.9502 33.0293 94.0871 32.5938 94.2613 32.32C94.4356 32.0462 94.7716 31.9093 95.2693 31.9093C95.5929 31.9093 95.9662 31.984 96.3893 32.1333C96.8373 32.2827 97.1236 32.4818 97.248 32.7307C97.3973 33.104 97.472 33.5147 97.472 33.9627C97.472 34.5849 97.3849 35.3938 97.2107 36.3893C97.0116 37.3849 96.8747 38.4676 96.8 39.6373C96.7502 40.6827 96.912 41.7778 97.2853 42.9227C97.6587 44.0676 98.1938 44.8142 98.8907 45.1627C99.6871 45.5609 100.085 45.9218 100.085 46.2453C100.085 46.768 99.8987 47.1787 99.5253 47.4773C99.152 47.776 98.7911 47.9253 98.4427 47.9253C97.5218 47.9253 96.688 47.5893 95.9413 46.9173C95.2196 46.2453 94.6969 45.4116 94.3733 44.416C93.8507 45.2124 93.3405 45.872 92.8427 46.3947C92.3698 46.8924 91.76 47.3156 91.0133 47.664C90.2667 47.9876 89.3458 48.1493 88.2507 48.1493C86.9565 48.1493 85.7742 47.6889 84.704 46.768C83.6587 45.8471 83.136 44.2667 83.136 42.0267C83.136 41.4044 83.1485 40.7449 83.1733 40.048C83.2231 39.3511 83.248 38.8533 83.248 38.5547C83.3227 37.6587 83.36 36.8373 83.36 36.0907C83.36 35.8667 83.2729 35.68 83.0987 35.5307C82.9493 35.3813 82.7751 35.3067 82.576 35.3067C82.4267 35.3067 82.2525 35.3316 82.0533 35.3813C81.8791 35.4062 81.7173 35.4187 81.568 35.4187ZM119.971 39.1147C120.121 38.5671 120.283 37.8204 120.457 36.8747C120.706 35.7547 120.905 34.9084 121.054 34.336C121.203 33.7636 121.403 33.2782 121.651 32.88C121.925 32.432 122.162 32.1333 122.361 31.984C122.585 31.8347 122.821 31.76 123.07 31.76C124.364 31.76 125.011 32.2578 125.011 33.2533C125.011 33.7511 124.812 34.6844 124.414 36.0533C123.095 40.0356 122.149 43.1218 121.577 45.312C121.328 46.2329 120.955 46.9422 120.457 47.44C119.959 47.9129 119.287 48.1493 118.441 48.1493C118.018 48.1493 117.582 47.9502 117.134 47.552C116.711 47.1289 116.363 46.6187 116.089 46.0213L115.678 45.0133C114.981 43.2462 114.459 41.8898 114.11 40.944C113.787 39.9733 113.575 39.1022 113.475 38.3307L113.139 39.5253C112.542 41.6658 111.92 43.6569 111.273 45.4987C110.949 46.4444 110.551 47.1289 110.078 47.552C109.605 47.9502 108.995 48.1493 108.249 48.1493C107.801 48.1493 107.403 48.0498 107.054 47.8507C106.731 47.6516 106.419 47.3156 106.121 46.8427C105.723 46.1956 105.337 45.3244 104.963 44.2293C104.615 43.1342 104.105 41.4293 103.433 39.1147C103.109 38.1191 102.811 37.0738 102.537 35.9787C102.263 34.8587 102.126 34.0747 102.126 33.6267C102.126 33.104 102.263 32.6933 102.537 32.3947C102.811 32.096 103.209 31.9467 103.731 31.9467C104.403 31.9467 104.876 32.0836 105.15 32.3573C105.424 32.6062 105.673 32.992 105.897 33.5147C106.021 34.4107 106.295 35.68 106.718 37.3227L107.539 40.832C107.589 41.1058 107.739 41.6782 107.987 42.5493L108.286 43.632C108.834 42.4622 109.294 41.3422 109.667 40.272C110.041 39.2018 110.451 37.8827 110.899 36.3147C110.924 36.2151 111.173 35.3564 111.646 33.7387C111.97 33.216 112.256 32.8302 112.505 32.5813C112.754 32.3076 113.003 32.1707 113.251 32.1707C113.749 32.1707 114.172 32.3324 114.521 32.656C114.894 32.9547 115.168 33.328 115.342 33.776C115.641 34.7467 115.902 35.6302 116.126 36.4267C116.226 36.7502 116.45 37.5342 116.798 38.7787C117.171 39.9982 117.507 41.0311 117.806 41.8773C118.105 42.7236 118.354 43.3209 118.553 43.6693L119.971 39.1147Z" fill="url(#paint0_linear_232_14)"/>
<path d="M38.7037 26.5926C38.7037 28.3108 37.3108 29.1852 35.5926 29.1852C33.8744 29.1852 33 28.3108 33 26.5926C33 24.8744 33.8744 24 35.5926 24C37.3108 24 38.7037 24.8744 38.7037 26.5926Z" fill="#F5443B"/>
<defs>
<linearGradient id="paint0_linear_232_14" x1="69" y1="7" x2="69" y2="63" gradientUnits="userSpaceOnUse">
<stop stop-color="#C7CAFE"/>
<stop offset="1" stop-color="#3D408F"/>
</linearGradient>
</defs>
</svg>
