<svg width="88" height="88" viewBox="0 0 88 88" fill="none" xmlns="http://www.w3.org/2000/svg">
<g clip-path="url(#clip0_14_1873)">
<path d="M98.4 -116L205.4 -9.00006L98.4 97.9999C98.4 97.9999 79.9 54.5 49.4 39C18.9 23.5 -8.59998 -9.00006 -8.59998 -9.00006L98.4 -116Z" fill="#F5453D"/>
<path d="M80.8829 -121L185.658 -41.5009L100.262 71.0464C100.262 71.0464 56.7413 42.9968 68.7694 9.85936C80.7975 -23.2781 80.8829 -121 80.8829 -121Z" fill="#F54F47"/>
<path d="M36.7657 10.2193C25.6312 3.74691 20.4001 9.49859 14.8244 2.96651C6.72029 -6.5277 16.443 -14.393 17.7918 -28.8593C24.7767 -34.6268 38.9337 -27.4045 44.7267 -20.3888C57.9002 -11.6801 47.9001 16.6917 36.7657 10.2193Z" fill="#F65D55"/>
<path d="M38.8218 15.411L40.1531 16.2638L41.7437 13.7807L43.1503 14.6817C44.8475 15.7689 46.4118 15.3337 47.3174 13.9199C48.2161 12.5169 47.9752 10.9101 46.2851 9.82747L43.5293 8.06217L38.8218 15.411ZM42.4447 12.6862L44.148 10.0273L45.368 10.8088C46.3655 11.4478 46.4621 12.2688 45.961 13.051C45.4599 13.8333 44.6623 14.1067 43.6719 13.4723L42.4447 12.6862ZM47.5235 21.1369C49.1383 22.1713 50.8932 21.6912 51.985 19.9867C53.0791 18.2787 52.7838 16.4802 51.1691 15.4459C49.5543 14.4115 47.7971 14.8952 46.703 16.6032C45.6112 18.3077 45.9088 20.1025 47.5235 21.1369ZM48.1973 20.1009C47.3038 19.5285 47.3763 18.4515 48.0222 17.4432C48.6681 16.4349 49.6231 15.908 50.5165 16.4803C51.3957 17.0435 51.3163 18.1312 50.6704 19.1396C50.0245 20.1479 49.0764 20.664 48.1973 20.1009ZM50.012 25.4941L51.311 26.3262L53.1912 23.3909L53.245 23.4254C53.1921 23.9583 53.2582 24.7952 54.2055 25.402C55.5045 26.2341 57.1366 25.8272 58.2997 24.0115C59.4766 22.1743 59.1144 20.5355 57.8406 19.7195C56.8682 19.0966 56.088 19.4217 55.6355 19.6936L55.5602 19.6453L56.144 18.7339L54.8666 17.9156L50.012 25.4941ZM54.3751 21.4874C55.0601 20.4181 55.963 20.0198 56.7991 20.5553C57.6639 21.1093 57.6376 22.1299 56.9802 23.1562C56.3182 24.1896 55.3834 24.6535 54.5258 24.1042C53.6969 23.5732 53.6901 22.5567 54.3751 21.4874ZM62.6492 27.405C62.1113 28.2446 61.2454 28.277 60.6713 27.9092C60.0469 27.5093 59.9134 26.8013 60.3616 26.1016L62.4809 22.7932L61.182 21.9611L58.934 25.4704C58.0858 26.7945 58.3589 28.0272 59.4426 28.7213C60.2679 29.25 61.1273 29.1882 61.7739 28.7319L61.8313 28.7687L61.2038 29.7483L62.4633 30.5551L65.9939 25.0435L64.6949 24.2114L62.6492 27.405ZM69.8054 24.894L68.5065 24.0619L63.799 31.4107L65.098 32.2428L69.8054 24.894ZM67.9485 34.2256C68.8133 34.7796 69.5897 34.7051 70.123 34.3939L70.1661 34.4215L69.6811 35.1786L70.9298 35.9785L73.2928 32.2898C74.226 30.8329 73.3187 29.6343 72.2673 28.9608C71.1083 28.2184 69.8874 28.1651 68.9567 28.9859L70.0593 29.9351C70.4298 29.641 71.0027 29.5526 71.6378 29.9594C72.2406 30.3456 72.3731 30.8656 72.026 31.4075L72.0122 31.429C71.7731 31.8022 71.3705 31.5696 70.3314 31.0507C69.1886 30.4806 67.9613 30.1448 67.166 31.3864C66.4719 32.47 66.8971 33.5522 67.9485 34.2256ZM68.8972 33.4872C68.3554 33.1401 68.1264 32.6443 68.4321 32.1671C68.7516 31.6683 69.3191 31.7383 69.9533 32.0281C70.3241 32.1998 71.061 32.5504 71.317 32.5221L70.901 33.1716C70.5079 33.7852 69.6794 33.9883 68.8972 33.4872ZM72.236 36.8152L73.5349 37.6473L75.6105 34.4071C76.0588 33.7073 76.9034 33.55 77.6175 34.0075C77.8364 34.1477 78.0838 34.3618 78.1721 34.469L78.9375 33.2741C78.8329 33.1767 78.6375 33.0313 78.494 32.9394C77.8625 32.5348 77.1051 32.5558 76.495 33.0658L76.4376 33.029L77.0261 32.1104L75.7666 31.3036L72.236 36.8152Z" fill="white" fill-opacity="0.8"/>
</g>
<defs>
<clipPath id="clip0_14_1873">
<rect width="88" height="88" fill="white"/>
</clipPath>
</defs>
</svg>
